<svg width="17" height="17" viewBox="0 0 17 17" fill="none" xmlns="http://www.w3.org/2000/svg">
<path d="M8.30542 0.27832C10.4784 0.27832 10.7504 0.28832 11.6034 0.32632C12.4554 0.36532 13.0364 0.50032 13.5454 0.69832C14.0714 0.90232 14.5184 1.17632 14.9624 1.62132C15.4074 2.06532 15.6814 2.51132 15.8854 3.03832C16.0834 3.54732 16.2184 4.12832 16.2574 4.98032C16.2954 5.83332 16.3054 6.10532 16.3054 8.27832C16.3054 10.4513 16.2954 10.7233 16.2574 11.5763C16.2184 12.4283 16.0834 13.0093 15.8854 13.5183C15.6845 14.0522 15.3695 14.5357 14.9624 14.9353C14.5174 15.3803 14.0724 15.6543 13.5454 15.8583C13.0364 16.0563 12.4554 16.1913 11.6034 16.2303C10.7504 16.2693 10.4784 16.2783 8.30542 16.2783C6.13242 16.2783 5.86042 16.2683 5.00742 16.2303C4.15542 16.1913 3.57442 16.0563 3.06542 15.8583C2.53159 15.6574 2.04801 15.3424 1.64842 14.9353C1.24135 14.5357 0.926355 14.0522 0.72542 13.5183C0.52742 13.0093 0.39242 12.4283 0.35342 11.5763C0.31542 10.7233 0.30542 10.4513 0.30542 8.27832C0.30542 6.10532 0.31542 5.83332 0.35342 4.98032C0.39242 4.12832 0.52742 3.54732 0.72542 3.03832C0.92942 2.51232 1.20342 2.06532 1.64842 1.62132C2.09242 1.17632 2.53842 0.90232 3.06542 0.69832C3.57442 0.50032 4.15542 0.36532 5.00742 0.32632C5.86042 0.28832 6.13242 0.27832 8.30542 0.27832ZM8.30542 1.71932C6.16942 1.71932 5.91542 1.72832 5.07242 1.76632C4.29242 1.80232 3.86942 1.93232 3.58742 2.04232C3.21342 2.18732 2.94742 2.36032 2.66742 2.64032C2.38742 2.92032 2.21442 3.18632 2.06942 3.56032C1.95942 3.84232 1.82942 4.26532 1.79342 5.04532C1.75542 5.88932 1.74642 6.14232 1.74642 8.27832C1.74642 10.4143 1.75542 10.6683 1.79342 11.5113C1.82942 12.2913 1.95942 12.7143 2.06942 12.9963C2.21442 13.3703 2.38742 13.6363 2.66742 13.9163C2.94742 14.1963 3.21342 14.3693 3.58742 14.5143C3.86942 14.6243 4.29242 14.7543 5.07242 14.7903C5.91642 14.8283 6.16942 14.8373 8.30542 14.8373C10.4414 14.8373 10.6954 14.8283 11.5384 14.7903C12.3184 14.7543 12.7414 14.6243 13.0234 14.5143C13.3974 14.3693 13.6634 14.1963 13.9434 13.9163C14.2234 13.6363 14.3964 13.3703 14.5414 12.9963C14.6514 12.7143 14.7814 12.2913 14.8174 11.5113C14.8554 10.6673 14.8644 10.4143 14.8644 8.27832C14.8644 6.14232 14.8554 5.88832 14.8174 5.04532C14.7814 4.26532 14.6514 3.84232 14.5414 3.56032C14.4133 3.21283 14.209 2.89847 13.9434 2.64032C13.6853 2.37474 13.3709 2.1704 13.0234 2.04232C12.7414 1.93232 12.3184 1.80232 11.5384 1.76632C10.6944 1.72832 10.4414 1.71932 8.30542 1.71932ZM8.30742 10.8733C8.64853 10.8733 8.9863 10.8061 9.30144 10.6756C9.61658 10.5451 9.90293 10.3537 10.1441 10.1125C10.3853 9.87133 10.5767 9.58498 10.7072 9.26984C10.8377 8.9547 10.9049 8.61693 10.9049 8.27582C10.9049 7.93471 10.8377 7.59694 10.7072 7.2818C10.5767 6.96666 10.3853 6.68031 10.1441 6.43911C9.90293 6.19791 9.61658 6.00658 9.30144 5.87604C8.9863 5.74551 8.64853 5.67832 8.30742 5.67832C7.61852 5.67832 6.95784 5.95198 6.47071 6.43911C5.98358 6.92624 5.70992 7.58692 5.70992 8.27582C5.70992 8.96472 5.98358 9.6254 6.47071 10.1125C6.95784 10.5997 7.61852 10.8733 8.30742 10.8733ZM8.30742 4.27432C8.8329 4.27432 9.35324 4.37782 9.83873 4.57892C10.3242 4.78001 10.7653 5.07476 11.1369 5.44633C11.5085 5.81791 11.8032 6.25903 12.0043 6.74451C12.2054 7.23 12.3089 7.75034 12.3089 8.27582C12.3089 8.8013 12.2054 9.32164 12.0043 9.80713C11.8032 10.2926 11.5085 10.7337 11.1369 11.1053C10.7653 11.4769 10.3242 11.7716 9.83873 11.9727C9.35324 12.1738 8.8329 12.2773 8.30742 12.2773C7.24616 12.2773 6.22836 11.8557 5.47793 11.1053C4.72751 10.3549 4.30592 9.33708 4.30592 8.27582C4.30592 7.21456 4.72751 6.19676 5.47793 5.44633C6.22836 4.69591 7.24616 4.27432 8.30742 4.27432ZM13.3094 4.27432C13.3094 4.53954 13.2041 4.79389 13.0165 4.98143C12.829 5.16896 12.5746 5.27432 12.3094 5.27432C12.0442 5.27432 11.7898 5.16896 11.6023 4.98143C11.4148 4.79389 11.3094 4.53954 11.3094 4.27432C11.3094 4.0091 11.4148 3.75475 11.6023 3.56721C11.7898 3.37968 12.0442 3.27432 12.3094 3.27432C12.5746 3.27432 12.829 3.37968 13.0165 3.56721C13.2041 3.75475 13.3094 4.0091 13.3094 4.27432Z" fill="white"/>
</svg>
